<svg preserveAspectRatio="none" width="100%" height="100%" overflow="visible" style="display: block;" viewBox="0 0 75.1697 69.3319" fill="none" xmlns="http://www.w3.org/2000/svg">
<path id="Star 1" d="M30.5337 5.46741C32.3826 -1.82247 42.7871 -1.82247 44.636 5.46741V5.46741C45.7934 10.031 50.9767 12.2809 55.0803 9.97294L57.4494 8.64056C63.5329 5.21911 69.9943 12.4778 65.9573 18.1716V18.1716C63.241 22.0027 65.3558 27.3774 69.9599 28.3037V28.3037C76.9063 29.7012 76.9063 39.6308 69.9599 41.0282V41.0282C65.3558 41.9545 63.241 47.3292 65.9573 51.1603V51.1603C69.9943 56.8541 63.5329 64.1128 57.4494 60.6914L55.0803 59.359C50.9767 57.0511 45.7934 59.3009 44.636 63.8645V63.8645C42.7871 71.1544 32.3826 71.1544 30.5337 63.8645V63.8645C29.3763 59.3009 24.193 57.0511 20.0894 59.359L17.7203 60.6914C11.6367 64.1128 5.17536 56.8541 9.21237 51.1603V51.1603C11.9287 47.3292 9.81389 41.9545 5.20978 41.0282V41.0282C-1.73659 39.6308 -1.73659 29.7012 5.20978 28.3037V28.3037C9.8139 27.3774 11.9287 22.0027 9.21237 18.1716V18.1716C5.17536 12.4778 11.6367 5.21911 17.7203 8.64056L20.0894 9.97295C24.193 12.2809 29.3763 10.031 30.5337 5.46741V5.46741Z" fill="var(--fill-0, #FFD102)"/>
</svg>
