<svg preserveAspectRatio="none" width="100%" height="100%" overflow="visible" style="display: block;" viewBox="0 0 259 46" fill="none" xmlns="http://www.w3.org/2000/svg">
<g id="Layer_1" clip-path="url(#clip0_0_29)">
<path id="Vector" d="M13.2991 0V6.66667H39.2316V45.6667H0V0H13.2991ZM25.9325 24.6667V19.5C25.9325 18.7667 23.2277 19.025 22.6035 19V24.1667C22.6035 24.6583 21.0639 24.8917 20.6228 24.4917L13.2991 19.3333V24.1667C13.2991 24.1667 12.8331 24.6667 12.7998 24.6667H7.1489C6.42486 24.6667 6.42486 28 7.1489 28H13.2991V33.3333L20.6228 28.1833L22.6035 28V33.6667C23.2527 33.3667 25.9325 34.0667 25.9325 33.1667V28H32.2491V24.6667H25.9325Z" fill="var(--fill-0, white)"/>
<path id="Vector_2" d="M259 6.66675V45.6667H220.102V6.66675H259ZM246.034 20.0001H233.068V32.6667H246.034V20.0001Z" fill="var(--fill-0, white)"/>
<path id="Vector_3" d="M168.569 6.66675V45.6667H155.27V34.3334H142.637V45.6667H129.338V22.5001L145.134 6.66675H168.569ZM155.27 26.0001V14.6667C151.142 18.3501 147.164 22.2251 142.97 25.8417C142.887 26.8584 143.328 26.0001 143.469 26.0001H155.27Z" fill="var(--fill-0, white)"/>
<path id="Vector_4" d="M213.785 6.66675V21.1667C213.785 21.6167 212.029 21.6501 211.647 21.6667C208.076 21.8501 204.082 21.7667 200.644 21.3584C200.32 20.3834 200.378 19.2751 200.819 18.3334H187.853V32.6667H213.785V45.6667H174.887V6.66675H213.785Z" fill="var(--fill-0, white)"/>
<path id="Vector_5" d="M84.4456 6.66675V18.1667L76.1399 26.1667C76.9222 27.4084 84.4456 33.9084 84.4456 34.5001V45.6667H45.5469V34.3334H68.8245L60.5188 26.1667L68.4916 18.3334H45.5469V6.66675H84.4456Z" fill="var(--fill-0, white)"/>
<path id="Vector_6" d="M136.978 6.66675C137.12 7.25008 136.737 7.33341 136.479 7.66675C133.691 11.3167 128.831 14.6917 125.835 18.3334H107.384C108.166 19.4667 114.791 25.7834 114.674 26.4584C113.884 27.5751 107.051 33.9501 107.051 34.5001V45.5001C107.051 45.5001 106.585 46.0001 106.552 46.0001H91.2552C91.2552 46.0001 90.7559 45.5334 90.7559 45.5001V34.5001C90.7559 33.9334 97.9963 27.7251 98.712 26.4584C98.8618 25.6084 90.7559 18.7501 90.7559 18.1667V6.66675H136.97H136.978Z" fill="var(--fill-0, white)"/>
</g>
<defs>
<clipPath id="clip0_0_29">
<rect width="259" height="46" fill="white"/>
</clipPath>
</defs>
</svg>
