<svg preserveAspectRatio="none" width="100%" height="100%" overflow="visible" style="display: block;" viewBox="0 0 236.812 236.812" fill="none" xmlns="http://www.w3.org/2000/svg">
<path id="Ellipse 1" d="M234.562 118.406C234.562 182.558 182.558 234.562 118.406 234.562M234.562 118.406C234.562 54.2549 182.558 2.25 118.406 2.25M234.562 118.406H2.25M118.406 234.562C54.2549 234.562 2.25 182.558 2.25 118.406M118.406 234.562C157.006 234.562 188.297 182.558 188.297 118.406C188.297 54.2549 157.006 2.25 118.406 2.25M118.406 234.562C79.8067 234.562 48.5156 182.558 48.5156 118.406C48.5156 54.2549 79.8067 2.25 118.406 2.25M118.406 234.562C131.454 234.562 142.031 182.558 142.031 118.406C142.031 54.2549 131.454 2.25 118.406 2.25M118.406 234.562C105.359 234.562 94.7812 182.558 94.7812 118.406C94.7812 54.2549 105.359 2.25 118.406 2.25M2.25 118.406C2.25 54.2549 54.2549 2.25 118.406 2.25M31.7812 41.625H205.523M31.2891 195.187H205.523" stroke="var(--stroke-0, white)" stroke-width="4.5"/>
</svg>
